<?xml version="1.0" encoding="utf-8"?>
<!-- Generator: Adobe Illustrator 26.0.1, SVG Export Plug-In . SVG Version: 6.00 Build 0)  -->
<svg version="1.1" id="Layer_1" xmlns="http://www.w3.org/2000/svg" xmlns:xlink="http://www.w3.org/1999/xlink" x="0px" y="0px"
	 viewBox="0 0 977 889" style="enable-background:new 0 0 977 889;" xml:space="preserve">
<style type="text/css">
	.st0{fill:#FFFFFF;}
	.st1{fill:none;stroke:#000000;stroke-width:2;stroke-miterlimit:10;}
</style>
<path class="st0" d="M0,0v889h977V0H0z M805.5,577.7c-13,30.7-30.1,59-51.2,84.6l-8.9-8.9c-7,8.5-14.4,16.8-22.3,24.7
	C660.5,740.6,577.4,775,489,775s-171.5-34.4-234.1-96.9c-6.7-6.7-13-13.6-19-20.7l-8.9,8.9c-22.6-26.6-40.9-56.3-54.6-88.6
	c-17.9-42.4-27-87.3-27-133.7s9.1-91.4,27-133.7c17.3-40.9,42.1-77.6,73.6-109.2c31.5-31.5,68.3-56.3,109.2-73.6
	c42.4-17.9,87.3-27,133.7-27s91.4,9.1,133.7,27c40.9,17.3,77.6,42.1,109.2,73.6c31.5,31.5,56.3,68.3,73.6,109.2
	c17.9,42.4,27,87.3,27,133.7S823.4,535.4,805.5,577.7z M735.1,643.1l8.9,8.9c-7,8.5-14.4,16.8-22.3,24.7
	C659.5,738.8,576.9,773,489,773s-170.5-34.2-232.6-96.4c-6.7-6.7-13-13.6-19-20.7l8.9-8.9c-47.7-56.9-73.8-128-73.8-203.1
	c0-84.5,32.9-164,92.7-223.8c59.8-59.8,139.3-92.7,223.8-92.7s164,32.9,223.8,92.7c59.8,59.8,92.7,139.3,92.7,223.8
	C805.5,517.4,780.7,586.9,735.1,643.1z"/>
<g>
	<path d="M488.8,775.8c-88.4,0-171.5-34.4-234.1-96.9c-62.5-62.5-96.9-145.6-96.9-234.1s34.4-171.5,96.9-234.1
		c62.5-62.5,145.6-96.9,234.1-96.9s171.5,34.4,234.1,96.9c62.5,62.5,96.9,145.6,96.9,234.1s-34.4,171.5-96.9,234.1
		C660.3,741.4,577.2,775.8,488.8,775.8z M488.8,115.8c-87.9,0-170.5,34.2-232.6,96.4c-62.1,62.1-96.4,144.8-96.4,232.6
		s34.2,170.5,96.4,232.6c62.1,62.1,144.8,96.4,232.6,96.4s170.5-34.2,232.6-96.4c62.1-62.1,96.4-144.8,96.4-232.6
		s-34.2-170.5-96.4-232.6C659.3,150,576.7,115.8,488.8,115.8z"/>
</g>
<line class="st1" x1="725.2" y1="643.2" x2="754.8" y2="672.8"/>
<line class="st1" x1="225.6" y1="675.7" x2="255.3" y2="646"/>
</svg>
