<?xml version="1.0" encoding="utf-8"?>
<!-- Generator: Adobe Illustrator 24.1.2, SVG Export Plug-In . SVG Version: 6.00 Build 0)  -->
<svg version="1.1" id="Layer_1" xmlns="http://www.w3.org/2000/svg" xmlns:xlink="http://www.w3.org/1999/xlink" x="0px" y="0px"
	 viewBox="0 0 349 52.6" style="enable-background:new 0 0 349 52.6;" xml:space="preserve">
<style type="text/css">
	.st0{fill:#FFFFFF;}
</style>
<g>
	<g>
		<g>
			<g>
				<path class="st0" d="M85.7,9.7l1.1,12l13.7-14.1c0.2-0.4,0.7-0.7,1.1-1.1c0.5-0.2,1-0.5,1.5-0.5H115L88.5,33.8l-5.2,12.9H71.4
					l5.2-12.9l-1.8-22.1C77.6,6,85.7,9.7,85.7,9.7z"/>
				<path class="st0" d="M127.8,6c2.4,0,4.5,0.4,6.2,1.1s2.9,1.8,3.8,3.2s1.3,3,1.2,5.1c0,2.1-0.6,4.4-1.6,6.9s-1.9,4.9-2.8,7
					c-0.9,2.2-1.8,4.2-2.7,6.4c-1,2.4-1.9,4.4-3,5.8c-1,1.5-2.1,2.6-3.3,3.4c-1.2,0.7-2.6,1.2-3.9,1.5c-1.5,0.2-3.2,0.4-5.1,0.4H98
					l16.3-40.7h13.6L127.8,6L127.8,6z M126.4,17.9c0.2-0.6,0.2-1.2,0-1.7s-0.7-0.7-1.3-0.7h-2.2l-9.2,22.9h2.2
					c0.6,0,1.3-0.2,1.9-0.7s1.1-1.1,1.3-1.7L126.4,17.9z"/>
				<path class="st0" d="M164,6c2.1,0.2,3.8,0.7,5.1,1.5c1.2,0.8,2.2,1.8,2.8,3s0.9,2.5,0.7,3.9c-0.1,1.5-0.4,2.8-1,4.2
					s-1.3,2.8-2.1,3.8c-0.9,1.1-1.7,1.9-2.6,2.8c-0.9,0.7-1.8,1.5-2.8,1.9c-1,0.5-1.9,1-2.8,1.3c1.7,0.6,2.8,1.7,3.2,3.5
					c0.4,1.8,0.1,3.9-0.9,6.3l-3.4,8.4h-10.3c-0.5,0-1-0.2-1.5-0.6c-0.5-0.4-0.5-1-0.2-1.7l3.8-9.1c0.2-0.6,0.2-1.2-0.1-1.7
					s-0.9-0.7-1.5-0.7H148l-5.6,14h-12.3l16.4-40.7L164,6L164,6z M158.8,17.9c0.2-0.6,0.2-1.2,0-1.7s-0.7-0.7-1.3-0.7h-2.2l-2.6,6.3
					h2.3c0.6,0,1.2-0.2,1.9-0.7c0.6-0.5,1.1-1.1,1.5-1.7L158.8,17.9z"/>
				<path class="st0" d="M193.1,5.3c2.4,0,4.6,0.4,6.3,1.1s3,1.8,3.9,3.3s1.3,3.2,1.3,5.3s-0.5,4.5-1.6,7.2c-1,2.5-1.9,5-2.9,7.3
					c-1,2.2-1.8,4.4-2.8,6.6c-1.1,2.5-2.1,4.5-3,6.1c-1,1.5-2.2,2.7-3.3,3.5c-1.2,0.8-2.6,1.3-4,1.6c-1.5,0.2-3.3,0.4-5.2,0.4h-5.6
					c-1.6,0-3.2-0.2-4.5-0.7c-1.5-0.5-2.6-1.2-3.5-2.3s-1.3-2.6-1.5-4.4c-0.1-1.8,0.4-4.1,1.5-6.8l2.1-5.2c0.6-1.6,1.3-3.3,2.1-5.1
					s1.5-3.6,2.2-5.5s1.6-3.4,2.6-4.9c1.1-1.5,2.2-2.7,3.6-3.8c1.3-1.1,2.9-1.8,4.5-2.4c1.7-0.6,3.5-0.9,5.5-0.9h2.4V5.3H193.1z
					 M191.6,17.9c0.2-0.6,0.2-1.2,0-1.7s-0.7-0.7-1.5-0.7c-1,0-1.6,0.1-1.9,0.5c-0.4,0.4-0.9,1-1.2,1.9L180,35
					c-0.6,1.5-0.7,2.3-0.5,2.7s0.7,0.6,1.5,0.6c0.9,0,1.5-0.1,1.9-0.5c0.5-0.4,1-1,1.3-1.9L191.6,17.9z"/>
				<path class="st0" d="M225.8,5.3c2.7,0,5,0.4,6.9,1.1s3.4,1.7,4.5,3s1.7,2.9,1.8,4.7s-0.2,3.9-1.2,6.2H228
					c-0.7,0-1.3-0.1-1.7-0.5c-0.5-0.2-0.6-0.8-0.4-1.6c0-0.1,0.1-0.2,0.1-0.4s0.1-0.2,0.1-0.4c0.1-0.1,0.1-0.4,0.1-0.5
					c0.2-0.8,0.2-1.5,0.2-2.1c-0.1-0.5-0.5-0.8-1.2-0.8c-1,0-1.7,0.2-2.2,0.8c-0.6,0.6-1.1,1.5-1.6,2.8c-0.2,0.7-0.1,1.5,0.5,2.2
					c0.6,0.6,1.3,1.3,2.4,2.2c1,0.7,2.1,1.6,3.2,2.5c1.1,0.8,2.1,1.9,2.9,3.2s1.3,2.7,1.5,4.2s-0.1,3.5-1.1,5.7
					c-0.7,1.8-1.5,3.3-2.4,4.5c-1,1.2-2.1,2.2-3.4,2.9c-1.3,0.7-2.8,1.2-4.6,1.6c-1.7,0.4-3.8,0.5-6.1,0.5c-2.7,0-5-0.4-6.9-1.1
					c-1.9-0.7-3.4-1.7-4.5-3s-1.7-2.9-1.8-4.7s0.2-4,1.2-6.3h9.8c0.9,0,1.5,0.2,1.9,0.6c0.5,0.4,0.5,1.2,0,2.2
					c-0.1,0.1-0.1,0.2-0.1,0.4s0,0.2,0,0.2c-0.2,0.7-0.2,1.3-0.1,1.9c0.1,0.5,0.5,0.7,1.2,0.7c1,0,1.7-0.2,2.2-0.8
					c0.6-0.6,1.1-1.5,1.6-2.8c0.2-0.7,0.1-1.5-0.5-2.2s-1.3-1.5-2.4-2.2c-1-0.7-2.1-1.6-3.2-2.5c-1.1-1-2.1-1.9-2.9-3.2
					s-1.3-2.7-1.5-4.2c-0.2-1.7,0.1-3.5,1.1-5.7c0.7-1.8,1.5-3.3,2.4-4.5c1-1.2,2.1-2.2,3.4-2.9c1.3-0.7,2.8-1.2,4.6-1.6
					C221.4,5.5,223.5,5.3,225.8,5.3z"/>
				<path class="st0" d="M257.7,37.3l-3.8,9.5h-24l16.5-40.7h11.9l-12.6,31.3L257.7,37.3L257.7,37.3L257.7,37.3z"/>
				<path class="st0" d="M268,46.7h-11.9L272.6,6h11.9L268,46.7z"/>
				<path class="st0" d="M301.3,6c2.4,0,4.5,0.4,6.2,1.1s2.9,1.8,3.8,3.2s1.3,3,1.2,5.1c0,2.1-0.6,4.4-1.6,6.9s-1.9,4.9-2.8,7
					s-1.8,4.2-2.7,6.4c-1,2.4-1.9,4.4-3,5.8c-1,1.5-2.1,2.6-3.3,3.4c-1.2,0.7-2.5,1.2-3.9,1.5c-1.5,0.2-3.2,0.4-5.1,0.4h-18.8
					l16.3-40.7h13.7L301.3,6L301.3,6z M299.8,17.9c0.2-0.6,0.2-1.2,0-1.7s-0.7-0.7-1.3-0.7h-2.2l-9.2,22.9h2.2
					c0.6,0,1.3-0.2,1.9-0.7s1.1-1.1,1.3-1.7L299.8,17.9z"/>
				<path class="st0" d="M335.6,41.8c-2.1,5.5-7.8,5-7.8,5h-24.3L320,6.1h29l-4.1,10.1h-17l-2.2,5.1h14.5l-3.9,9.7H322l-2.2,5.1h18
					C337.7,36.1,336.7,38.7,335.6,41.8z"/>
			</g>
		</g>
		<polygon class="st0" points="333,49.9 58.6,49.9 57.4,52.2 332.2,52.2 		"/>
	</g>
	<path class="st0" d="M8.4,52L8.4,52c1.3,0.4,2.4,0.6,3.2,0.6h13.6l1.9-4.4c2.5-5.1,9.5-17.1,21.6-22.8l-9.6,21.4
		c-1,1.7-3,4.7-6.6,5.7c-0.4,0.1,2.1,0.1,4,0l0,0h15h1.8L72,11.1l0,0c4.1-8.9,13.6-3.8,13.6-3.8C83.2,2,77,0.6,77,0.6l0,0
		C75.1,0,73.5,0,73.5,0H60L49.2,24c-2.4-0.1-7,0-11.3,0l8.4-18.6c1-1.8,3-4.6,6.4-5.5C53,0,50.6,0,48.8,0.1l0,0h-6H31.9L13.2,41.5
		c-4.1,9-13.2,4-13.2,4C2.4,50.6,8.4,52,8.4,52z"/>
	<g>
		<path class="st0" d="M339.2,46c0.5,0,1.1,0.1,1.6,0.4s0.9,0.6,1.2,1.1c0.2,0.5,0.4,1,0.4,1.6c0,0.5-0.1,1.1-0.4,1.6
			c-0.2,0.5-0.6,0.8-1.1,1.1c-0.5,0.2-1,0.4-1.6,0.4s-1.1-0.1-1.6-0.4s-0.9-0.6-1.1-1.1s-0.4-1-0.4-1.6c0-0.5,0.1-1.1,0.4-1.6
			c0.2-0.5,0.6-0.8,1.2-1.1C338.2,46.1,338.7,46,339.2,46z M339.2,46.5c-0.5,0-0.9,0.1-1.3,0.4c-0.4,0.2-0.7,0.5-1,1
			c-0.2,0.4-0.4,0.8-0.4,1.3s0.1,0.8,0.4,1.3c0.2,0.4,0.6,0.7,1,1c0.4,0.2,0.9,0.4,1.3,0.4s0.9-0.1,1.3-0.4c0.4-0.2,0.7-0.6,1-1
			s0.4-0.8,0.4-1.3s-0.1-0.8-0.4-1.3c-0.2-0.4-0.6-0.7-1-1C340,46.6,339.6,46.5,339.2,46.5z M337.8,50.8v-3.4h1.1
			c0.4,0,0.7,0,0.9,0.1s0.4,0.1,0.4,0.4c0.1,0.1,0.1,0.4,0.1,0.5c0,0.2-0.1,0.5-0.2,0.6s-0.4,0.2-0.7,0.4c0.1,0,0.2,0.1,0.2,0.1
			c0.1,0.1,0.2,0.4,0.5,0.6l0.4,0.6h-0.6l-0.2-0.5c-0.2-0.4-0.4-0.7-0.6-0.7c-0.1-0.1-0.2-0.1-0.5-0.1h-0.4v1.5L337.8,50.8
			L337.8,50.8z M338.4,48.9h0.6c0.4,0,0.5,0,0.6-0.1s0.1-0.2,0.1-0.4s0-0.2-0.1-0.2c0-0.1-0.1-0.1-0.2-0.1s-0.2,0-0.5,0h-0.6v0.8
			H338.4L338.4,48.9z"/>
	</g>
</g>
</svg>
