<?xml version="1.0" encoding="utf-8"?>
<!-- Generator: Adobe Illustrator 24.3.0, SVG Export Plug-In . SVG Version: 6.00 Build 0)  -->
<svg version="1.1" id="Layer_1" xmlns="http://www.w3.org/2000/svg" xmlns:xlink="http://www.w3.org/1999/xlink" x="0px" y="0px"
	 viewBox="0 0 512 512" style="enable-background:new 0 0 512 512;" xml:space="preserve">
<style type="text/css">
	.st0{fill:#FFFFFF;}
</style>
<g>
	<path class="st0" d="M256,69c60.9,0,68.1,0.2,92.2,1.3c22.2,1,34.3,4.7,42.4,7.9c10.6,4.1,18.2,9.1,26.2,17.1s12.9,15.6,17.1,26.2
		c3.1,8,6.8,20.1,7.9,42.4c1.1,24.1,1.3,31.3,1.3,92.2s-0.2,68.1-1.3,92.2c-1,22.2-4.7,34.3-7.9,42.4c-4.1,10.6-9.1,18.2-17.1,26.2
		s-15.6,12.9-26.2,17.1c-8,3.1-20.1,6.8-42.4,7.9c-24.1,1.1-31.3,1.3-92.2,1.3s-68.1-0.2-92.2-1.3c-22.2-1-34.3-4.7-42.4-7.9
		c-10.6-4.1-18.2-9.1-26.2-17.1s-12.9-15.6-17.1-26.2c-3.1-8-6.8-20.1-7.9-42.4c-1-24.2-1.2-31.4-1.2-92.3s0.2-68.1,1.3-92.2
		c1-22.2,4.7-34.3,7.9-42.4c4.1-10.6,9.1-18.2,17.1-26.2s15.6-12.9,26.2-17.1c8-3.1,20.1-6.8,42.4-7.9C187.9,69.2,195.1,69,256,69
		 M256,27.9c-62,0-69.7,0.3-94.1,1.4c-24.3,1.1-40.9,5-55.4,10.6c-15,5.8-27.7,13.6-40.4,26.3s-20.5,25.4-26.3,40.4
		c-5.6,14.5-9.5,31.1-10.6,55.4s-1.4,32.1-1.4,94.1s0.3,69.7,1.4,94.1c1.1,24.3,5,40.9,10.6,55.4c5.8,15,13.6,27.7,26.3,40.4
		c12.7,12.7,25.4,20.5,40.4,26.3c14.5,5.6,31.1,9.5,55.4,10.6s32.1,1.4,94.1,1.4s69.7-0.3,94.1-1.4c24.3-1.1,40.9-5,55.4-10.6
		c15-5.8,27.7-13.6,40.4-26.3c12.7-12.7,20.5-25.4,26.3-40.4c5.6-14.5,9.5-31.1,10.6-55.4s1.4-32.1,1.4-94.1s-0.3-69.7-1.4-94.1
		c-1.1-24.3-5-40.9-10.6-55.4c-5.8-15-13.6-27.7-26.3-40.4c-12.7-12.7-25.4-20.5-40.4-26.3c-14.5-5.6-31.1-9.5-55.4-10.6
		C325.7,28.1,318,27.9,256,27.9"/>
	<path class="st0" d="M256,138.8c-64.7,0-117.2,52.5-117.2,117.2S191.3,373.2,256,373.2S373.2,320.8,373.2,256
		C373.2,191.3,320.7,138.8,256,138.8 M256,332c-42,0-76-34-76-76s34-76,76-76s76,34,76,76S298,332,256,332"/>
	<path class="st0" d="M405.2,134.2c0,15.1-12.3,27.4-27.4,27.4s-27.4-12.3-27.4-27.4s12.3-27.4,27.4-27.4
		C392.9,106.8,405.2,119.1,405.2,134.2"/>
</g>
</svg>
