<?xml version="1.0" encoding="utf-8"?>
<!-- Generator: Adobe Illustrator 24.1.2, SVG Export Plug-In . SVG Version: 6.00 Build 0)  -->
<svg version="1.1" id="Layer_1" xmlns="http://www.w3.org/2000/svg" xmlns:xlink="http://www.w3.org/1999/xlink" x="0px" y="0px"
	 viewBox="0 0 304.5 45.6" style="enable-background:new 0 0 304.5 45.6;" xml:space="preserve">
<style type="text/css">
	.st0{fill:#FFFFFF;}
</style>
<g>
	<g>
		<path class="st0" d="M9.3,0.3l1.3,0.5c0.3,2.8-0.6,4.4,0,5.7c0.2,0.6,0.4,0.7,0.9,1.3C12,8.5,11.8,8.5,12,9.3
			c0.2,0.3,0.5,1.1,0.6,1.5c0.2,0.5,0.4,0.9,0.5,1.5c0.9,2.5,0.5,3.6,2.5,5.6c0.2,1.6,0.8,3.6,1.3,5.3l0.4,1.2
			c0.1,0.5,0.7,5.8,2.6,6.7c0.4,0.2,1.5,0.1,1.9-0.2c1-0.9,0.5-1.7,0.5-2.7c0.1-0.3,0.3-0.9,0.7-2.7l0.6-2c0.3-1.1,0.3-0.9,0.3-2.1
			l0.3-1.6c0.1-1.3,0.2-2.1,0.5-3.1c0.1-0.5,0.3-0.9,0.7-1.5c0.2-0.4,0.2-1.1,0.5-1.5l1.8-5.1c0.3-1.1,0.7-3.5,1-4.6L29,2.5
			c0.2-0.7,0.3-1.3,0.7-1.9h2.9h1l1.1,0.3c0.3,0.2,0.7,0.4,1.1,0.5c0.6,0.1,1.5-0.5,2,0.7c0.2,0.5,0.1,1.6-0.3,2.3
			c-0.2,0.2-0.5,0.3-0.7,0.5c-0.1,0.3-0.2,0.7-0.6,0.9c-0.2,0.4-0.5,0.9-0.5,2.1c-0.3,2.2,0,1.7,0,4.1v1.3c0,0.5,0,0.5-0.2,1.3
			c0,0.9,0,1.8,0,2.7c0,0.2,0,1.2-0.1,1.5c0,1.7-0.4,3.6-0.1,5.3c0,0,0.2,1.2,0.2,1.3s0.1,0.9,0.1,1.1v0.9c-1.8,5,0.4,6.2-0.2,12.2
			c0.4,0.8,0.4,0.7,1.1,1.7c0.3,0.5,0.2,0.3,0.5,0.6c0.3,0.4,0.2,0.2,0.4,0.5c0.1,0.5,0,0.2,0,0.8c-0.1,0.4-0.6,0.6-0.9,0.6h-1.1
			h-0.5c-0.8,0.2-0.5,0.3-1.3,0.8c-2.6,0,0,0-2.6,0c-1.6,0-0.5,0-3.1,0.1c-0.5-0.5-0.5-1.8-0.5-2.3c0.4-1.5,0.6-0.7,1.4-1.9
			c0.6-0.9,0.9-2.4,0.6-3.7c-0.3-2.3-0.5-1.5-0.2-3.9l0.4-3.1c0.2-1.3,0-1.6,0-3.9v-4.3c0-0.1,0-0.5,0-0.7c0.2-0.3,0-0.3,0.2-0.7
			c0.1-0.7,0-0.9,0.2-1.6v-0.9c-0.2-0.7,0-1.1,0-1.8v-1c0.1-1.4,0.2-0.8,0.3-2.2c0-0.3,0.2-1.7-0.5-2.2c-0.5,0.3-0.4,0.5-0.7,1.1
			c-0.2,0.8-0.1,0.7-0.3,1.5c-0.1,0.4-0.1,0.3-0.1,0.7c0,0.1-0.2,0.3-0.3,0.7c0,0.2-0.2,0.5-0.2,0.8c0,0.1,0,0.5,0,0.7
			c-0.3,1.6-0.4,1-1.2,2.8c-0.2,0.5-0.5,2.3-0.6,2.9l-0.5,2.1l-0.3,1c0,0-0.5,1.7-0.8,2.6l-1.9,5c0,0.3-0.9,2.9-1.2,4l-0.5,2.3
			c-0.2,0.5-0.4,0.9-0.5,1.5c-0.1,0.3-0.6,1.5-0.6,1.5c-0.2,0.6-0.3,1.1-0.5,1.5c0,0.5-0.1,1.1-0.5,1.5c-1.4-3-2.3-4.6-2.7-7.9
			l0.4-0.7c0-0.4,0-0.5-0.5-1.1c0,0-0.8-1-0.9-1.1c-0.4-0.4-0.5-0.7-0.5-1.2c0-0.7,0.1-0.5-0.1-1.4c0,0-0.4-0.5-0.8-0.9
			c-0.5-0.7-0.6-1-0.8-1.4c-0.2-0.3-0.5-1.3-0.9-2.6l-0.5-2.5c-0.4-1.6-0.8-2.2-1.9-4.6l-1.1-2.5c-0.5-0.9-0.5-1.4-0.6-2.5
			c-0.4-0.8-0.5-1.1-1.3-2.4c-0.5,0.5-0.5,1.6-0.4,2.1c0.2,1.1,0.3,1.1,0.3,2.3c0,0.5,0.1,1.6,0,2.1c0,0.5-0.1,0.4-0.2,1.1
			s-0.1,0.5,0,1.2l0.6,11.7c0.1,1.4,0.1,1.2,0.1,3.1c-0.1,1.5-0.7,1.8,0,3.5c0.4,0.8,0.6,0.8,1,1.6c0.1,0.4,0.4,1.1,0.8,1.7
			c0.5,1.1,0.6,1.1,0.6,2.3L9.4,45c-0.3,0-0.8,0-1.3,0c-0.3,0-0.8-0.1-1.3-0.1H3.2c-0.3,0-0.6,0-0.9,0H0.9l-0.2-0.4v-0.7
			c1.8-1.7,2.3-1.7,2.6-5c0.1-1.1,0-2,0-3.3s0.1-2,0.3-3.4c0.1-1.8,0.5-2.9,0.5-3.5c0-2.4,0-4.8-0.1-7.2l-0.1-1.5l0.3-2.5
			c-0.2-0.8-0.4-1-0.5-1.7c-0.3-0.7-0.3-0.8,0.2-1.8C4,13,4.3,11.3,4.2,10.3c0-0.3,0-0.8-0.4-1.3L3.2,7.7C3.1,7.1,3.1,5.5,3.1,4.9
			C3,4.6,3,4.6,2.6,4.2c-0.5-0.3-1-1-1.5-1.2C1,2.8,0.7,2.7,0.6,2.4c0-0.3-0.1-0.5-0.2-0.7C0.4,1.6,0,1,0,0.3c1.6-0.6,1.4-0.3,2.9,0
			h3.2H7c0.3,0,0.6,0.3,1,0.3h1.3V0.3z"/>
		<path class="st0" d="M61.6,42.6c-0.2-0.2-1.2-1.1-1.3-1.4c-0.3-0.5-0.5-1.5-0.6-1.8c-0.5-1.1-0.4-0.6-0.6-1.8l-0.7-3.1
			c-0.1-0.2-0.3-0.8-0.3-1l-0.9-3.2c-0.1-0.4-0.2-0.8-0.3-1.3c-0.2-0.6-0.4-0.7-0.5-1.2c-0.2-0.9-0.3-1.6-0.5-2.5l-0.6-3.4
			c-0.1-0.4-0.4-1.5-0.5-1.7l-0.6-2.4c-0.1-0.5-0.3-0.9-0.4-1.1l-0.4-1.5c0-0.3-0.1-0.5-0.2-0.7l-0.6-2.6l-0.3-1.2
			c0-0.5-0.1-1.1-0.2-1.3c-0.5-0.1-1.4-0.5-1.7,0.2c-0.2,0.3-0.2,3.2-0.6,4.9l-0.5,1.4c0,0.1-0.2,0.5-0.5,1.5l-1.6,5.7
			c-0.2,0.5-0.1,0.5-0.3,0.9v0.3l-0.5,1.5l-0.2,0.9l-2.1,7.8c-0.3,0.9-0.9,1.5-1.3,2.4c-0.7,1.5-0.5,0.9-1,2.4L41.5,40
			c-0.5,0.9-0.9,1.5-1.6,2.1c-0.3,0.3-0.6,0.5-0.9,0.8c-0.5,0.4-0.5,0.7-0.5,1.1c2.1,1.5,4.1,1.1,5.7,1.1c2,0,0,0,2,0
			c0-1.1,0.2-1-0.3-2.1c-0.3-0.7-0.7-1-1.2-1.5c-0.5-1.1,0.1-2.8,0.6-5.1l0.3-1.5c0.3-0.7,0.3-0.5,0.5-1.1c0.1-0.4,0.2-0.8,0.2-1.1
			c0.3-1.2,0.5-1.7,0.9-2.1c0.5-0.4,4.3-0.4,4.7-0.2c0.9,0.5,1.1,1.4,1.3,2.3l0.1,0.6c0.4,1,0.2,0.4,0.5,1.9l0.9,2.9
			c0.5,2,1.1,3.9,0.5,5.1c-0.5,0.6-0.9,0.5-1.2,0.7c-0.6,0.4-0.7,0.9-0.6,1.4h0.9c0.3,0,0.6,0.2,0.9,0.2h3.2c1.1,0,2.1-0.2,3.2-0.5
			C62,43.4,62.3,43.5,61.6,42.6z M52.1,27l-0.2,0.3c0,0-1.5,0.2-3-0.1c-0.2-2.7,0.7-4.4,1.3-7.1l0.3-1.3c0.2-0.6,0.2-0.9,0.7-1.2
			c0.4,0.2,0.4,0.5,0.4,0.9c0,0.3-0.1,0.7-0.2,1.1c0,0.4,0.2,1.6,0.2,2.1c0.3,2.4,0.2,1.7,0.5,4.2C52.1,25.9,52.1,27,52.1,27z"/>
		<path class="st0" d="M82.5,40.8c-1.4-0.2-1.6-0.4-2-2.1c-0.4-1.5-0.4-2.1-0.5-3.6l-0.3-2.6c-0.3-2.3-0.4-3-1.8-4.6v-0.3
			c0.4-0.7,1.1-0.5,1.3-0.8c0.5-0.4,0.8-0.8,1.3-1.4c1-1.5,1.6-3,1.8-3.6c0.5-2.5-0.4-6.1-2.2-8.6c-2.4-3.3-7.4-3.6-9.8-3.2h-0.9
			c-0.5,0-0.5-0.1-1.1-0.2c-0.5-0.1-0.8-0.1-1.1-0.1c-0.3,0-0.6,0.1-1,0.1c-0.2,0.1-0.4,0.1-0.5,0.1c-0.2,0.1-0.3,0-0.5,0.2
			c0,0.5-0.2,1.5,0.1,2l0.7,0.6c0.5,0.5,0.5,0.5,0.5,1s0,0.6,0.2,1c0,0.4,0,0.7,0,1.1c0.1,2.3,0.1,3.1,0.1,4.1v13
			c0,0.4-0.2,0.8-0.2,1.1v1.5l0.1,1.8V38c0,0.2-0.3,2.8-0.3,3c-0.2,0.5-0.4,1-0.8,1.5c-0.4,0.4-0.7,0.4-0.9,1.2v0.6
			c1.6,0.5,1.5,0.3,3.2,0h2.7c0.2-0.1,0.3,0.2,0.5,0.2c0.2-0.1,0.2-0.1,0.5-0.1c0.5,0,0.6,0.1,0.8-0.1H74c0.1-0.5,0-0.8-0.4-1.2
			c-0.3-0.3-0.5-0.4-0.7-0.7c-0.7-0.6-0.8-0.5-1.2-1.7c-0.3-1.1-0.3-4.2-0.3-4.4L70.7,36v-0.3c0.2-0.3,0.4-0.3,0.5-0.5
			s0.3-1.5,0.3-1.5c0.1-0.2,0.1-0.5,0.1-0.7c0-0.5-0.5-2.7-0.5-2.9c0.1-0.8,0.1-0.8,0.7-1.2c0.7-0.5,1.6-0.3,2.1,0.1s1.5,2,1.7,3.1
			c0.3,0.9,0.3,1.1,0.3,3v0.7c0.3,2.6,1.8,8.1,3.2,9.1c0.7,0.5,1.5,0.3,2.1-0.3c0.5-0.5,0.8-1,1.2-2c0.1-0.3,0.4-0.9,0.5-1.1
			C82.7,41.2,82.9,41.1,82.5,40.8z M76.9,23.8c-0.5,0.8-1,1.3-1.6,1.5c-0.7,0.3-2.7,0.5-3.3-0.2c-0.7-0.8-0.5-3.9-0.5-4.7v-0.9h-0.7
			C70.4,19,71,18.6,71.1,18c0.2-0.5,0.2-1,0.3-1.5c0.3-1.6,0.3-2.4,0.7-3.1c0.5-0.9,0.8-0.6,1.5-0.5c0.8,0.2,1.7,0.5,2.1,0.9
			s1.5,2.2,1.6,2.8c0.5,1.3,0,1.2,0.3,2.5c0.2,1.1,0.5,1.5,0.3,2.5c-0.1,0.3-0.5,1-0.5,1.2C77.2,22.7,77.1,23.4,76.9,23.8z"/>
		<path class="st0" d="M106.1,21c-0.3,0.5-0.6,0.5-1.1,0.4c-0.2-0.2-0.3-0.5-0.4-0.7c-0.3-0.3-0.3-0.2-0.5-0.5
			c-0.5-0.7-0.9-2.2-1.3-3c-0.1-0.4-0.3-0.7-0.4-1c-0.5-1.1-0.7-0.6-1.4-1c-0.2-0.1-0.5-0.5-0.7-0.6c-0.2,0-0.6-0.1-0.7-0.2
			l-1.5-0.3c-0.6-0.3-2.8-1-3.6-0.6c-0.9,0.5-2.6,1.6-3.5,3.6l-0.4,1.3c-0.2,0.3-0.5,0.8-0.6,1.3c-0.2,0.8,0,0.5-0.1,1.3
			c0,0.4-0.3,0.9-0.5,1.3C88.5,25.8,89,24,89,27.5v2.6c0,2.5,0.1,8.1,2.6,10.3c1.5,1.4,6.4,2.8,7.9,1.8c0.9-0.5,1.2-2,1.4-3.2
			c0.1-1.1,0-2.5-0.6-3.2c-0.5-0.5-0.4-0.2-0.9-0.3c-0.6-0.2-0.4-0.2-0.9-0.5v-1.1c0.1-0.3,0.3-0.5,0.6-0.5c0.1,0,0.7,0.1,0.8-0.1
			l5.9,0.3c0.1,0,0.3,0,0.5,0.1c0.2-0.1,0.2-0.2,0.4,0.1c0.1,1.5,0,1.7,0,2.7c-1,1.7-0.9,1.8-1,3.7c0,1.6,0.1,2.1-0.1,3.7l-1,0.3
			c-0.7,0.2-1.4,0.8-2,0.8c-2.3,0,0,0-2.3,0c-0.4,0-0.9,0.5-1.4,0.5h-1.3c-3.8,0-6.3,0.4-10.1-5c-2.5-3.5-3.2-8.4-3.2-12v-1.7
			c0-0.5,0-1,0.1-1.9c0-0.3,0-0.7,0.1-0.9c0.5-0.8,0.5-0.9,0.5-1c0.2-5.7,4.2-10.2,6.7-11.4c2.9-1.3,3.2-1.5,5.7-1.3
			c3.8,0.5,2.3-0.4,5.7,1.7l1.5,0.9l0.7,0.5c0.4,0.3,0.5,0.2,0.7,0.6L106.1,21L106.1,21z"/>
		<path class="st0" d="M130.2,42.6c-0.2-0.2-1.2-1.1-1.3-1.4c-0.3-0.5-0.5-1.5-0.6-1.8c-0.5-1.1-0.4-0.6-0.6-1.8l-0.7-3.1
			c-0.1-0.2-0.3-0.8-0.3-1l-0.9-3.2c-0.1-0.4-0.2-0.8-0.3-1.3c-0.2-0.6-0.4-0.7-0.5-1.2c-0.2-0.9-0.3-1.6-0.5-2.5l-0.6-3.4
			c-0.1-0.4-0.4-1.5-0.5-1.7l-0.6-2.4c-0.1-0.5-0.3-0.9-0.4-1.1l-0.4-1.5c0-0.3-0.1-0.5-0.2-0.7l-0.7-2.7l-0.3-1.2
			c0-0.5-0.1-1.1-0.2-1.3c-0.5-0.1-1.4-0.5-1.7,0.2c-0.2,0.3-0.2,3.2-0.6,4.9l-0.5,1.4c0,0.1-0.2,0.5-0.5,1.5l-1.6,5.7
			c-0.2,0.5-0.1,0.5-0.3,0.9v0.3l-0.5,1.5l-0.2,0.9l-2.1,7.8c-0.3,0.9-0.9,1.5-1.3,2.4c-0.7,1.5-0.5,0.9-1,2.4l-0.3,0.7
			c-0.5,0.9-0.9,1.5-1.6,2.1c-0.3,0.3-0.6,0.5-0.9,0.8c-0.5,0.4-0.5,0.7-0.5,1.1c2.1,1.5,4.1,1.1,5.7,1.1c2,0,0,0,2,0
			c0-1.1,0.2-1-0.3-2.1c-0.3-0.7-0.7-1-1.2-1.5c-0.5-1.1,0.1-2.8,0.6-5.1l0.3-1.5c0.3-0.7,0.3-0.5,0.5-1.1c0.1-0.4,0.2-0.8,0.2-1.1
			c0.3-1.2,0.5-1.7,0.9-2.1c0.5-0.4,4.3-0.4,4.7-0.2c0.9,0.5,1.1,1.4,1.3,2.3l0.1,0.6c0.4,1,0.2,0.4,0.5,1.9l0.9,2.9
			c0.5,2,1.1,3.9,0.5,5.1c-0.5,0.6-0.9,0.5-1.2,0.7c-0.6,0.4-0.7,0.9-0.6,1.4h0.9c0.3,0,0.6,0.2,0.9,0.2h3.2c1.1,0,2.1-0.2,3.2-0.5
			C130.5,43.4,130.8,43.5,130.2,42.6z M120.6,27l-0.2,0.3c0,0-1.5,0.2-3-0.1c-0.2-2.7,0.7-4.4,1.3-7.1l0.3-1.3
			c0.2-0.6,0.2-0.9,0.7-1.2c0.4,0.2,0.4,0.5,0.4,0.9c0,0.3-0.1,0.7-0.2,1.1c0,0.4,0.2,1.6,0.2,2.1c0.3,2.4,0.2,1.7,0.5,4.2
			C120.6,25.9,120.6,27,120.6,27z"/>
		<path class="st0" d="M150.1,40.8c-1.4-0.2-1.6-0.4-2-2.1c-0.4-1.5-0.4-2.1-0.5-3.6l-0.3-2.6c-0.3-2.3-0.4-3-1.8-4.6v-0.3
			c0.4-0.7,1.1-0.5,1.3-0.8c0.5-0.4,0.8-0.8,1.3-1.4c1-1.5,1.6-3,1.8-3.6c0.5-2.5-0.4-6.1-2.2-8.6c-2.4-3.3-7.4-3.6-9.8-3.2H137
			c-0.5,0-0.5-0.1-1.1-0.2c-0.5-0.1-0.8-0.1-1.1-0.1s-0.6,0.1-1,0.1c-0.2,0.1-0.4,0.1-0.5,0.1c-0.2,0.1-0.3,0-0.5,0.2
			c0,0.5-0.2,1.5,0.1,2l0.7,0.6c0.5,0.5,0.5,0.5,0.5,1s0,0.6,0.2,1c0,0.4,0,0.7,0,1.1c0.1,2.3,0.1,3.1,0.1,4.1v13
			c0,0.4-0.2,0.8-0.2,1.1v1.5l0.1,1.8V38c0,0.2-0.3,2.8-0.3,3c-0.2,0.5-0.4,1-0.8,1.5c-0.4,0.4-0.7,0.4-0.9,1.2v0.6
			c1.6,0.5,1.5,0.3,3.2,0h2.7c0.2-0.1,0.3,0.2,0.5,0.2c0.2-0.1,0.2-0.1,0.5-0.1c0.5,0,0.6,0.1,0.8-0.1h1.6c0.1-0.5,0-0.8-0.4-1.2
			c-0.3-0.3-0.5-0.4-0.7-0.7c-0.7-0.6-0.8-0.5-1.2-1.7c-0.3-1.1-0.3-4.2-0.3-4.4l-0.7-0.3v-0.3c0.2-0.3,0.4-0.3,0.5-0.5
			s0.3-1.5,0.3-1.5c0.1-0.2,0.1-0.5,0.1-0.7c0-0.5-0.5-2.7-0.5-2.9c0.1-0.8,0.1-0.8,0.7-1.2c0.7-0.5,1.6-0.3,2.1,0.1s1.5,2,1.7,3.1
			c0.3,0.9,0.3,1.1,0.3,3v0.7c0.3,2.6,1.8,8.1,3.2,9.1c0.7,0.5,1.5,0.3,2.1-0.3c0.5-0.5,0.8-1,1.2-2c0.1-0.3,0.4-0.9,0.5-1.1
			C150.3,41.2,150.5,41.1,150.1,40.8z M144.5,23.8c-0.5,0.8-1,1.3-1.6,1.5c-0.7,0.3-2.7,0.5-3.3-0.2c-0.7-0.8-0.5-3.9-0.5-4.7v-0.9
			h-0.7c-0.4-0.5,0.2-0.9,0.3-1.5c0.2-0.5,0.2-1,0.3-1.5c0.3-1.6,0.3-2.4,0.7-3.1c0.5-0.9,0.8-0.6,1.5-0.5c0.8,0.2,1.7,0.5,2.1,0.9
			c0.4,0.4,1.5,2.2,1.6,2.8c0.5,1.3,0,1.2,0.3,2.5c0.2,1.1,0.5,1.5,0.3,2.5c-0.1,0.3-0.5,1-0.5,1.2
			C144.9,22.7,144.8,23.4,144.5,23.8z"/>
		<g>
			<path class="st0" d="M301.9,39.5L301.9,39.5c-1.5,0-2.6,1.2-2.6,2.6c0,1.5,1.2,2.6,2.6,2.6c1.5,0,2.6-1.1,2.6-2.6
				C304.5,40.7,303.4,39.5,301.9,39.5z M301.9,44.2c-1.2,0-2.1-1-2.1-2.2s0.9-2.2,2.1-2.2l0,0c1.2,0,2.1,1,2.1,2.2
				C304,43.3,303.1,44.2,301.9,44.2z"/>
			<path class="st0" d="M302.4,42.2L302.4,42.2c0.3-0.1,0.5-0.4,0.5-0.7s-0.1-0.5-0.3-0.6c-0.2-0.1-0.5-0.2-0.9-0.2s-0.5,0-0.8,0.1
				v2.9h0.5v-1.3h0.4c0.4,0,0.5,0.2,0.6,0.5c0.1,0.4,0.1,0.6,0.2,0.7h0.5c-0.1-0.1-0.1-0.3-0.2-0.7
				C302.8,42.4,302.7,42.2,302.4,42.2z M301.7,42h-0.4v-1c0.1,0,0.2,0,0.4,0c0.5,0,0.7,0.3,0.7,0.5C302.5,41.9,302.1,42,301.7,42z"
				/>
		</g>
		<path class="st0" d="M170.2,9.6c4,2.3,3.1,0.4,7.1,0.4l0.5,0.2l0.3-0.2c1.6,0.1,1.1,0.3,2.7,0.8c0.3-0.5,0.8-0.3,1.2-0.5h1.2h1
			v1.9c-0.1,1.1-0.2,0.6-0.5,1.8c-0.2,0.5-0.3,0.9-0.3,1.8c0,0.3,0,0.5,0,0.9s-0.1,0.5-0.2,1l-1,0.3l-0.4-1.1
			c-0.2-0.6-0.3-1.2-0.5-1.8c-0.2-0.4-0.2-1-0.6-1c-0.4-0.5-0.2-0.5-0.7-1c-0.2-0.1-0.7-0.4-0.9-0.3l-0.2,0.3h-0.6
			c-0.3-0.4-0.9-0.6-1.3-0.5l-0.3-0.2h-0.4c-0.2,0.4-0.2,0.9-0.3,1.3c0,0.3-0.1,0.7-0.1,1.3v8.8c0,0.3-0.1,1.3-0.1,1.5v1.5
			c0,0.2-0.1,0.9-0.1,1.2c0,0.4-0.1,0.9-0.1,1.3c0.1,0.2,0.1,0.9,0.2,1.2l0.1,1.3c0,1,0.1,2,0.1,3.1v3.6c0,2.9,0.6,2.9,2.7,5.2v1.5
			c-0.2,0-0.5-0.1-0.7-0.1s-0.7-0.1-0.9-0.1c-0.4-0.4-0.3-0.4-0.8-0.4h-0.5c0,0-0.8,0-0.9,0h-0.5h-1.2h-0.6c-1.4,0-1.8,0.2-2.7,0.5
			l-0.5-1.3c3.1-4.2,2.6-2.1,2.6-7.1v-6.9c0-0.4-0.1-1-0.1-1.5v-2.9c0-0.6,0.2-1,0.2-1.2c0-0.3,0-0.8,0-1.2c0-1.1-0.3-2.1-0.3-3.2
			c0-2.3,0.4-1.8,0-4.2c-0.2-1.1,0.1-0.9-0.6-2.1c-0.3-0.5-0.5-0.8-0.6-0.9c-0.3-0.3-0.5-0.5-0.8-0.5c-0.5,0.6-1.5,1-2.1,1.3
			c-0.5,0.5-0.5,0.2-0.8,1c0,0.5-0.2,0.9-0.5,1.3c-0.5,0.4-0.3,0.3-0.5,0.7c-0.2,0.3-0.5,0.6-0.6,0.9c-0.8,0-0.7-0.2-0.7-1.2
			c0-0.5,0.1-1.1,0.1-1.5v-1.5c0-1.7-0.1-1.8-0.4-3.1c1.4-1.2,1.4-0.9,2.8-0.2l0.6,0.4c0.8,0.1,0.5-0.4,1.3-0.5
			c0.3-0.1,1,0.1,1.3,0.1L170.2,9.6z"/>
		<path class="st0" d="M204.2,42.6c-0.2-0.2-1.2-1.1-1.3-1.4c-0.3-0.5-0.5-1.5-0.6-1.8c-0.5-1.1-0.4-0.6-0.6-1.8l-0.7-3.1
			c-0.1-0.2-0.3-0.8-0.3-1l-0.9-3.2c-0.1-0.4-0.2-0.8-0.3-1.3c-0.2-0.6-0.4-0.7-0.5-1.2c-0.2-0.9-0.3-1.6-0.5-2.5l-0.6-3.4
			c-0.1-0.4-0.4-1.5-0.5-1.7l-0.6-2.4c-0.1-0.5-0.3-0.9-0.4-1.1l-0.4-1.5c0-0.3-0.1-0.5-0.2-0.7l-0.7-2.7l-0.3-1.2
			c0-0.5-0.1-1.1-0.2-1.3c-0.5-0.1-1.4-0.5-1.7,0.2c-0.2,0.3-0.2,3.2-0.6,4.9l-0.5,1.4c0,0.1-0.2,0.5-0.5,1.5l-1.6,5.7
			c-0.2,0.5-0.1,0.5-0.3,0.9v0.3l-0.5,1.5l-0.2,0.9l-2.1,7.8c-0.3,0.9-0.9,1.5-1.3,2.4c-0.7,1.5-0.5,0.9-1,2.4l-0.3,0.7
			c-0.5,0.9-0.9,1.5-1.6,2.1c-0.3,0.3-0.6,0.5-0.9,0.8c-0.5,0.4-0.5,0.7-0.5,1.1c2.1,1.5,4.1,1.1,5.7,1.1c2,0,0,0,2,0
			c0-1.1,0.2-1-0.3-2.1c-0.3-0.7-0.7-1-1.2-1.5c-0.5-1.1,0.1-2.8,0.6-5.1l0.3-1.5c0.3-0.7,0.3-0.5,0.5-1.1c0.1-0.4,0.2-0.8,0.2-1.1
			c0.3-1.2,0.5-1.7,0.9-2.1c0.5-0.4,4.3-0.4,4.7-0.2c0.9,0.5,1.1,1.4,1.3,2.3l0.1,0.6c0.4,1,0.2,0.4,0.5,1.9l0.9,2.9
			c0.5,2,1.1,3.9,0.5,5.1c-0.5,0.6-0.9,0.5-1.2,0.7c-0.6,0.4-0.7,0.9-0.6,1.4h0.9c0.3,0,0.6,0.2,0.9,0.2h3.2c1.1,0,2.1-0.2,3.2-0.5
			C204.6,43.4,204.8,43.5,204.2,42.6z M194.5,27l-0.2,0.3c0,0-1.5,0.2-3-0.1c-0.2-2.7,0.7-4.4,1.3-7.1l0.3-1.3
			c0.2-0.6,0.2-0.9,0.7-1.2c0.4,0.2,0.4,0.5,0.4,0.9c0,0.3-0.1,0.7-0.2,1.1c0,0.4,0.2,1.6,0.2,2.1c0.3,2.4,0.2,1.7,0.5,4.2V27
			L194.5,27z"/>
		<path class="st0" d="M208.9,12.7c-0.2,0.5-0.5,0.8-0.8,1.1c-0.2,0.5-0.4,0.8-0.6,1.2c-0.4,1-0.2,0.9,0.1,1.9
			c0.3,1.1,0.5,1.7,0.5,2l1,2.7c0.1,0.4,0,0.5,0.2,1c0.1,0.3,0.3,0.7,0.4,1.1l0.9,4.2c0.1,0.5,0.2,0.6,0.4,1.1
			c0.2,0.7,0.4,1.5,0.6,2.2c0,0.3,0.1,0.5,0.2,0.8l0.3,0.9c0.5-0.3,0.7-0.7,1-1.2c0.2-0.5,0.3-1,0.5-1.5c0.2-0.3,0.6-1.1,0.6-1.5
			c0.2-0.5,0.9-3,0.9-3.6c0.1-0.6,0.2-0.8,0.2-1.1l1.2-3.2c0.5-1.3,1.7-5.3,0.8-6.9c-0.3-0.5-1.3-1.3-1.5-1.6c0-0.5,0-1.2,0-1.7
			c0.1-0.2,0.3-0.4,0.6-0.4c0.3-0.1,0.5-0.1,0.7-0.2c0.1,0,0.5,0.1,0.7,0c0.3,0,0.5-0.1,0.7-0.1l2.5,0.3c0.2,0,0.5,0,0.7,0l0.7-0.1
			c0.4-0.1,1.2,0.1,1.5,0.2c0.2,0.5,0.2,0.6-0.2,1.2l-0.4,0.7c-0.1,0.1-0.5,0.3-0.5,0.3c-0.5,0.4-0.3,0.2-0.9,0.6
			c-0.4,0.5-0.6,0.9-1,1.3c-0.5,0.8-0.4,1.2-0.7,1.9c-0.1,0.4-0.7,1.5-0.9,1.9c-0.1,0.3-0.3,1.6-0.5,1.9s-0.4,0.6-0.5,1
			c-0.3,0.5-0.2,0.5-0.4,1l-0.5,1.9c-0.2,0.8-0.4,1.4-0.6,2.3l-0.4,1.3c-0.6,2.5-0.2,1.9-1.1,4.4l-0.6,1.7c-0.6,1.7-0.8,2.6-1,3.6
			l-0.5,2.6c-0.2,0.6-1.1,4.5-1.8,5c-0.3,0.2-0.6,0.2-0.9,0c-0.7-0.5-1.4-4.6-1.5-5.2l-0.4-1.7c-0.1-0.6-0.1-1.6-0.3-2.4l-0.6-1.1
			c-0.1-0.3-0.1-0.9-0.2-1.2l-0.9-2.6c-0.2-0.5-0.2-2.6-0.2-3.1c-0.8-2-0.7-1.9-1.3-3.8c-0.4-1.3-1.3-2.6-1.5-3.8l-0.2-0.8
			c-0.4-1.4-0.5-2.6-1.2-4.1c-0.2-0.4-0.6-1.5-1-1.9c-0.4-0.5-1.1-0.4-1.4-1c-0.2-0.3-0.3-1.3-0.2-1.6c0.5-1.2,3-0.5,3.6-0.5h1
			c0.2,0.1,1.2-0.1,2.4-0.1c0.7-0.1,1,0,1.2,0s1,0.1,1.2,0.3C209,10.9,209.1,12.3,208.9,12.7z"/>
		<path class="st0" d="M231.2,17.7v16.2c0,0.4,0.1,2.6,0.1,2.8v2.2c0,2,0.3,3.1,1.6,5.2v0.5c-1.1,0.2-2.5,0.2-3.2,0.1h-0.9
			c-0.2,0-0.6,0.2-0.7,0.3c-0.2,0-0.5,0.1-0.8,0.1c-0.3,0.1-0.6,0.1-1.5-0.1c0-0.1-0.6-0.5-0.6-0.7c-0.2-0.4-0.2-0.8-0.1-1.1
			c0.6-0.6,0.6-0.9,1.2-1.7c0.5-0.9,0.6-0.9,0.7-1.9c0-0.1,0.2-3.8,0.2-3.9v-2.4c0-0.4,0-0.8,0-1.2c0-0.3,0-0.8,0-1.2l-0.2-3.1
			c0-0.1,0-1.2,0-1.4c0-0.5-0.1-0.9,0-1.5l0.2-3.8c-0.1-1.5,0.1-6.5-1.2-7.9c-0.5-0.5-1.5-0.5-1.5-1.6c0-0.6,0.1-0.5,0.5-0.9
			c1.3-1.2,2.7,0.2,4.1,0l1.2-0.4c0.5-0.1,0.8-0.1,1.3,0c0.2,0.1,1,0.2,1.2,0.2c0.6,0.3,0.6,0.5,0.6,1.4
			C231.1,15.3,231.2,14.2,231.2,17.7z"/>
		<path class="st0" d="M245.8,11.1c-2.4,2.9-2.3,3.4-2.3,7.1v1.3c0,1.9-0.3,2.4-0.6,4.4h0.5c0,0.4,0,0.8,0,1.2c0,1.5-0.1,3-0.1,4.5
			c0,0.4,0,1,0,1.5l0.5,1.5c0,0.4,0,2.6-0.1,3.1c-0.1,1.5-0.2,2.6-0.1,3c0.1,0.6,0.8,2.2,1.5,2.5c0.4,0.2,5.2,0.5,6.1,0.1
			s0.9-1.2,1.2-2.1c0.1-0.3,0.3-0.5,0.5-1.2c0-0.3,0.1-0.9,0.4-1.1c0.6-0.1,0.9-0.1,1.3-0.1l0.2,0.4l-0.1,1.2v0.8
			c0.2,0.5,0.1,2.8,0.1,2.8c0,0.8,0.1,1.6-0.1,2.4c-0.5,0.6-0.8,0.1-1.4,0.4c-0.5,0-0.9,0.2-1.4,0.2c-0.6,0-1.1-0.1-1.6-0.1
			c0,0-0.3,0.1-0.4,0.1h-2.3c-0.5,0-0.8,0.1-1.2,0.1c-0.6,0-0.7,0-1.3-0.1l-2.4-0.3c-0.4-0.1-1.5,0.3-2,0.3h-2h-0.6l-0.7,0.2
			c-0.2,0-0.5-0.1-0.7-0.5v-0.8c0.2-0.5,1.2-1.5,1.4-1.9c0.7-0.9,0.7-0.9,0.8-2.1c0-1.8,0,0,0-1.8c0-0.4,0.1-0.5,0.2-1.1
			c0.2-0.4,0.2-0.9,0.2-1c0-0.5,0-0.5-0.1-1.1c-0.2-1.7-0.4-2.3-0.2-4.4v-6.6c0-0.4,0.2-0.4,0.3-0.7v-1.5v-1.5
			c0-0.2-0.1-1.3-0.1-1.5v-2c0-0.8,0-1.9-0.1-2.3c-0.5-1.5-0.6-0.9-1.4-1.7c-0.6-0.7-0.5-1-0.4-1.9c0.5-0.4,0.7-0.2,1.1-0.2
			c0.1,0,0.3-0.1,0.5-0.1s0.4,0.1,0.5,0.1c1.2,0.1,1.4,0.3,2.1,0.2c2.1-0.4,2-0.5,4.3-0.1L245.8,11.1L245.8,11.1z"/>
		<path class="st0" d="M264.8,11.1c-2.4,2.9-2.3,3.4-2.3,7.1v1.3c0,1.9-0.3,2.4-0.6,4.4h0.5c0,0.4,0,0.8,0,1.2c0,1.5-0.1,3-0.1,4.5
			c0,0.4,0,1,0,1.5l0.5,1.5c0,0.4,0,2.6-0.1,3.1c-0.1,1.5-0.2,2.6-0.1,3c0.1,0.6,0.8,2.2,1.5,2.5c0.4,0.2,5.2,0.5,6.1,0.1
			s0.9-1.2,1.2-2.1c0.1-0.3,0.3-0.5,0.5-1.2c0-0.3,0.1-0.9,0.4-1.1c0.6-0.1,0.9-0.1,1.3-0.1l0.2,0.4l-0.1,1.2v0.8
			c0.2,0.5,0.1,2.8,0.1,2.8c0,0.8,0.1,1.6-0.1,2.4c-0.5,0.6-0.8,0.1-1.4,0.4c-0.5,0-0.9,0.2-1.4,0.2c-0.6,0-1.1-0.1-1.6-0.1
			c0,0-0.3,0.1-0.4,0.1h-2.3c-0.5,0-0.8,0.1-1.2,0.1c-0.6,0-0.7,0-1.3-0.1l-2.4-0.3c-0.4-0.1-1.5,0.3-2,0.3h-2h-0.6l-0.7,0.2
			c-0.2,0-0.5-0.1-0.7-0.5v-0.8c0.2-0.5,1.2-1.5,1.4-1.9c0.7-0.9,0.7-0.9,0.8-2.1c0-1.8,0,0,0-1.8c0-0.4,0.1-0.5,0.2-1.1
			c0.2-0.4,0.2-0.9,0.2-1c0-0.5,0-0.5-0.1-1.1c-0.2-1.7-0.4-2.3-0.2-4.4v-6.6c0-0.4,0.2-0.4,0.3-0.7v-1.5v-1.5
			c0-0.2-0.1-1.3-0.1-1.5v-2c0-0.8,0-1.9-0.1-2.3c-0.5-1.5-0.6-0.9-1.4-1.7c-0.6-0.7-0.5-1-0.4-1.9c0.5-0.4,0.7-0.2,1.1-0.2
			c0.1,0,0.3-0.1,0.5-0.1s0.4,0.1,0.5,0.1c1.2,0.1,1.4,0.3,2.1,0.2c2.1-0.4,2-0.5,4.3-0.1V11.1L264.8,11.1z"/>
		<path class="st0" d="M284.5,0.6l0.5,0.2c0.9,0,1.5,0.3,2.5-0.2c0.3,0,0.8-0.1,1.3-0.2c1.7-0.1,3.1,0.4,4.8,0.6l0.4,0.3
			c2-0.5,3.1-1.1,4.6,1.1c0.5,0.8,0.6,2.4,0.7,3.9c0.1,1.3,0.1,1.7,0,1.9c0,0.5,0,1.5-0.8,1.9h-0.2c-1.5-2.6-0.8-2.6-3.3-4.4
			c-1.5-1.1-2.4-2.1-3.9-1.9c0,0.1-0.7,0.5-0.9,0.5c-0.2,0-0.6-0.3-0.9-0.6c-0.5-0.4-1.2-0.7-1.9-0.6c-0.6,0.1-1.5,0.1-1.8,1.3
			c-0.2,0.7,0.3,3.6,0.2,4.4c0,0.5,0,0.5,0,1.1c-0.2,0.7-0.2,0.5-0.2,1.1c-0.2,0.7-0.2,1.5-0.2,2.3l0.3,1c0.1,0.9-0.3,4.7,0.5,5.7
			c0.2,0.2,1.5,0.7,1.7,0.5c0.4-0.3,1.4-0.9,1.8-0.9l0.6-0.7c0.1-0.4,0.2-0.5,0.5-0.9c0.2-0.7,0.4-1.3,0.9-1.9c0.5,0,1.2-0.3,1.5,1
			c0,0.2,0.2,0.7,0.1,1.9c0,0.3,0.1,0.9-0.4,2v1.1c0.3,0.7,0.3,0.5,0.3,1.4c0,0.5,0,1.1,0,1.5c0,0.3,0,2.7-0.1,3
			c-0.2,0.3-0.5,0.5-1,0.5c-0.3-0.2-0.3-0.1-0.5-0.1c0,0-0.3-0.2-0.5-0.6c-0.1-0.5-0.3-0.7-0.5-1.5c-1-1.5-1.1-0.5-2.1-1.1
			c-0.3-0.2-0.7-0.6-1-1.1c-0.2,0-0.9-0.4-1.1-0.6c-0.3-0.1-1.3,0.1-1.5,0.5c0.2,2.4,0.5,2.1,0.5,3.6v1.9c-0.4,0.7-0.4,0.8-0.4,1.8
			v2.1c0.2,1.9-0.4,5.9,1,7.8c0.6,0.9,2.6,1.5,3.6,1.2c0.3-0.1,0.4-0.1,0.7-0.3c0.4-0.5,0.4-0.5,0.8-0.5h1.5c0.9-1,1.2-1.3,1.5-1.7
			c0.6-0.5,0.7-1,1-2.2c0.3-0.6,0.5-1.5,0.9-2.3c0.5-0.8,1-0.8,1.6-1.1l0.5,0.5v1.8c0,1.9,0,2.3,0,3.6v2.3c0,0.4,0,0.8,0,1.3
			c-0.2,0.6,0,0.5-0.5,1.1c-0.9,0.2-1.4,0.3-1.9,0.3c-0.2,0-1.6-0.5-1.9-0.5h-1.1c-0.7,0-1.2,0.4-2.4,0.4h-1.5
			c-0.4,0.3-0.6,0.3-1.1-0.1c-0.2,0.1-0.6,0.3-1,0.1l-3.8-0.3c-0.3,0-0.5-0.1-0.7-0.1l-0.3,0.3h-0.6c-2.6,0-2.7,0.1-5.4-0.6v-1
			c3.6-3.1,3.4-4.3,3.4-9.7v-4c0-0.3,0-1.7,0.1-2.1c0-2.3,0,0,0-2.3c0-0.7,0-0.6,0.3-1.4l-0.3-4.2c0-1.1,0-1.5,0-2l0.2-1.9l0.5-2.9
			c0-0.6-0.3-3.4-0.4-4.1c-0.2-1.7-0.2-2.7-1-4.1c-0.5-0.6-0.8-1.3-1.5-1.6c-0.5-0.6-1-1.4-1-2.1c0.4-0.4,0.7-0.5,0.9-0.6
			c0.5-0.2,0.4,0,1-0.1c0.5-0.3,1.4-0.2,1.9,0.1h0.9c0.2,0,0.7,0.3,1,0.5c0.9,0.4,0.9,0,1.8-0.5h0.5v0.2
			C284.2,0.6,284.5,0.6,284.5,0.6z"/>
		<path class="st0" d="M161.7,11.6c-0.3,0.4-0.5,0.5-0.8,0.9c-0.2,0.2-0.2,0.5-0.4,0.6c-0.1,0.1-0.2,0.1-0.3,0.1
			c-0.3,0.2-0.4,0.5-0.5,0.8c-0.2,0.5-0.3,0.9-0.3,1.6c0,0.5,0,0.9,0,1.5c0,0.3,0,0.4,0,0.6c0,1.2,0.1,1.8,0.2,3
			c0,0.4,0.1,0.6,0,0.9c-0.1,0.2-0.2,0.2-0.3,0.4c-0.2,0.4,0,0.7,0.1,1.3c0,0.6,0,1.1,0,1.6c0,1.5,0,2.6,0,4.1c0,0.5,0,0.7,0,1.2
			c0,0.4,0.1,0.7,0.1,1.1c0,0.6-0.1,0.9-0.2,1.5c-0.1,0.3-0.2,0.4-0.2,0.7c0,0.4,0.2,0.5,0.2,0.8c0.1,0.6,0.1,1.1,0.2,1.8
			c0,0.6,0.1,1.1,0,1.7c0,0.3-0.1,0.5-0.2,0.7c0,0.6,0,1,0.2,1.5c0.1,0.6,0.3,0.9,0.5,1.5c0.3,0.5,0.4,0.9,0.7,1.3s0.7,0.4,0.7,0.8
			c0,0.3-0.1,0.5-0.3,0.6c-0.4,0.5-0.8,0.2-1.4,0.2c-0.5,0-0.9-0.1-1.5-0.1c-0.4-0.1-0.5-0.2-0.9-0.2s-0.6,0.1-1,0.2
			c-0.2,0.1-0.4,0.2-0.5,0.2c-0.3,0.1-0.5-0.1-0.7-0.1c-0.3,0-0.5,0.1-0.7,0.1c-0.3,0-0.5,0.1-0.6-0.1c-0.4-0.2-0.5-0.5-0.6-0.7
			c-0.2-0.2-0.4-0.3-0.4-0.5s0.2-0.4,0.4-0.5c0.2-0.3,0.4-0.5,0.6-0.7c0.3-0.3,0.4-0.5,0.6-0.9c0.4-0.5,0.5-0.9,0.7-1.6
			c0.3-1,0-1.7,0-2.7s0.4-1.6,0.2-2.6c0-0.4-0.2-0.6-0.2-1c-0.1-0.7,0.2-1.1,0.2-1.8c0-0.6-0.1-1.1-0.1-1.7c0-0.7,0.1-1.2,0-1.8
			c-0.1-0.3-0.2-0.5-0.3-0.7c-0.1-0.5,0-0.9,0-1.4c0-0.6-0.2-0.9-0.1-1.5c0-0.5,0.2-0.8,0.3-1.3s0.3-0.8,0.4-1.4
			c0-0.5-0.1-0.8-0.2-1.4c0-0.4-0.1-0.6-0.2-1c0-0.3-0.2-0.4-0.2-0.7c-0.1-0.6,0.2-1.1,0.2-1.8c0-0.5,0-0.9,0-1.5
			c-0.1-0.4-0.2-0.6-0.3-0.9c-0.1-0.4-0.2-0.6-0.4-0.9c-0.3-0.5-0.5-0.6-0.9-0.9s-0.7-0.2-1-0.6c-0.2-0.3-0.3-0.5-0.3-0.9
			c0-0.8,0.7-1,1.4-1.2c0.5-0.2,0.9,0.1,1.5,0.1c0.6,0.1,1,0.2,1.5,0.3c0.4,0.1,0.5,0.3,0.9,0.2s0.6-0.4,1-0.5
			c0.3-0.1,0.4-0.1,0.6-0.1c0.4,0,0.5,0.2,0.9,0.3c0.5,0.1,0.8-0.4,1.2-0.1c0.4,0.2,0.6,0.4,0.6,0.8
			C162.1,11.2,161.8,11.3,161.7,11.6z"/>
	</g>
</g>
</svg>
