<?xml version="1.0" encoding="utf-8"?>
<!-- Generator: Adobe Illustrator 24.1.2, SVG Export Plug-In . SVG Version: 6.00 Build 0)  -->
<svg version="1.1" id="Layer_1" xmlns="http://www.w3.org/2000/svg" xmlns:xlink="http://www.w3.org/1999/xlink" x="0px" y="0px"
	 viewBox="0 0 340 44" style="enable-background:new 0 0 340 44;" xml:space="preserve">
<style type="text/css">
	.st0{fill:#FFFFFF;}
</style>
<g>
	<g>
		<path class="st0" d="M62.4,39.2C60,41.8,56.9,43,53.6,43H12.4c-3.4,0-6.3-1.1-8.8-3.7C1.1,36.7,0,33.8,0,30.1V12.8
			c0-3.5,1.2-6.6,3.5-9.1C5.9,1.2,8.9,0,12.4,0h41.2C57,0,60,1.2,62.4,3.8s3.6,5.5,3.6,9V30C66.1,33.6,64.9,36.7,62.4,39.2z M52.7,9
			H12c-2.2,0-4,1.8-4,4v17.6c0,3,1.4,4.4,4.1,4.4h40.8c2.3,0,4.2-2,4.2-4.4V13.3C57,10.9,55.1,9,52.7,9z"/>
		<path class="st0" d="M127.8,39.3c-2.4,2.5-5.3,3.7-8.7,3.7H70V0h49.1c3.4,0,6.3,1.2,8.7,3.8c2.4,2.6,3.6,5.5,3.6,9.1
			c0,3.3-1,6.3-3.1,8.7c2.1,2.4,3.1,5.3,3.1,8.6C131.3,33.7,130.1,36.7,127.8,39.3z M120.3,9H78v9h42.4c2.4,0,4.2-2.1,4.2-4.5
			C124.5,11,122.8,9,120.3,9z M120.4,26H78v9h42.3c2.8,0,4.2-1.4,4.2-4.5C124.4,28.1,122.7,26,120.4,26z"/>
		<path class="st0" d="M189,43V30.2c0-2.8-1.4-4.2-4.1-4.2H144v17h-9V0h48.8c3.4,0,6.3,1.2,8.6,3.8s3.6,5.5,3.6,9.1
			c0,3.3-1,6.3-3.1,8.7c2.1,2.4,3.1,5.3,3.1,8.6V43H189L189,43z M186.3,9H144v9h42.3c2.8,0,4.2-1.5,4.2-4.5S189.1,9,186.3,9z"/>
		<path class="st0" d="M201,43V0h8v43H201L201,43z"/>
		<path class="st0" d="M213,43V0h62v13h-8.2c0-2.7-1.4-4-4-4H222v8h40v9h-40v9h40.8c2.7,0,4.1-1.3,4-4h8.2v12H213L213,43z"/>
		<path class="st0" d="M332,44V13.3c0-2.4-1.9-4.3-4.3-4.3H287v35h-8V0h48.8c3.4,0,6.3,1.2,8.6,3.9s3.6,5.6,3.6,9.3V44H332z"/>
	</g>
</g>
</svg>
