<?xml version="1.0" encoding="utf-8"?>
<!-- Generator: Adobe Illustrator 26.3.1, SVG Export Plug-In . SVG Version: 6.00 Build 0)  -->
<svg version="1.1" id="Layer_1" xmlns="http://www.w3.org/2000/svg" xmlns:xlink="http://www.w3.org/1999/xlink" x="0px" y="0px"
	 viewBox="0 0 2830.95 600.69" style="enable-background:new 0 0 2830.95 600.69;" xml:space="preserve">
<style type="text/css">
	.st0{fill:#FFFFFF;}
</style>
<g>
	<g>
		<rect x="1517.83" y="303.12" class="st0" width="0" height="0"/>
	</g>
	<g>
		<g>
			<path class="st0" d="M1095.41,411.04c-15.25,16.07-33.33,23.81-54.24,23.81H785.79c-21.47,0-39.55-7.15-54.81-23.22
				c-15.25-16.08-22.03-35.12-22.03-57.75V246.12c0-22.03,7.34-41.08,22.03-56.56c15.25-16.07,33.34-23.81,54.81-23.81h255.38
				c20.9,0,38.98,7.74,54.24,23.81c15.26,16.08,22.6,34.53,22.6,56.56v107.76C1118.01,375.91,1110.66,394.96,1095.41,411.04z
				 M1067.16,246.12c0-14.29-11.86-26.79-25.99-26.79H785.22c-14.12,0-24.86,12.5-24.86,26.79v107.76
				c0,18.46,8.47,27.39,25.42,27.39h255.38c14.12,0,25.99-12.5,25.99-27.39V246.12z"/>
		</g>
		<g>
			<path class="st0" d="M1504.43,411.63c-14.69,15.48-32.77,23.22-54.24,23.22h-306.22V165.76h306.22
				c21.47,0,38.99,7.74,54.24,23.81c15.26,16.08,22.6,34.53,22.6,56.56c0,20.84-6.21,39.3-19.21,54.18
				c13,14.88,19.21,32.74,19.21,53.58C1527.03,376.51,1519.69,395.55,1504.43,411.63z M1450.19,219.33h-254.81v54.18h255.37
				c14.13,0,25.42-12.5,25.42-27.39C1476.18,231.24,1465.44,219.33,1450.19,219.33z M1450.75,327.09h-255.37v54.18h254.81
				c16.95,0,25.43-8.93,25.43-27.39C1475.62,339.59,1464.88,327.09,1450.75,327.09z"/>
		</g>
		<g>
			<path class="st0" d="M1884.64,434.85v-80.97c0-17.86-8.47-26.79-25.42-26.79h-254.81v107.76H1553V165.76h306.23
				c21.47,0,38.98,7.74,54.24,23.81c15.26,16.08,22.61,34.53,22.61,56.56c0,20.84-6.22,39.3-19.21,54.18
				c12.99,14.88,19.21,32.74,19.21,53.58v80.97H1884.64z M1859.22,219.33h-254.81v54.18h254.81c16.95,0,25.42-8.93,25.42-27.39
				C1884.64,228.26,1876.17,219.33,1859.22,219.33z"/>
		</g>
		<g>
			<path class="st0" d="M1962.03,434.85v-268.5h50.85v268.5H1962.03z"/>
		</g>
		<g>
			<path class="st0" d="M2038.85,434.85V165.76h383.07v80.37h-51.41c0-17.86-8.48-26.79-24.86-26.79h-255.37v54.18h255.37v53.58
				h-255.37v54.18h255.37c16.95,0,25.42-8.93,24.86-27.39h51.41v80.97H2038.85z"/>
		</g>
		<g>
			<path class="st0" d="M2779.53,434.85V246.12c0-14.29-11.3-26.79-25.42-26.79h-255.38v215.51h-50.85V165.76h306.23
				c21.48,0,38.99,7.74,54.24,23.81c15.26,16.08,22.6,34.53,22.6,56.56v188.73H2779.53z"/>
		</g>
	</g>
	<g>
		<path class="st0" d="M128.51,210.95v178.79c0,24.88,25.79,45.06,57.59,45.06h147.76c15.32-13.53,61.09-61.12,31.89-124.68
			c0,0,47.4,70.79,31.4,124.68h17.47c31.81,0,57.59-20.18,57.59-45.06V210.95c0-24.89-25.78-45.06-57.59-45.06H186.1
			C154.29,165.89,128.51,186.06,128.51,210.95z M203.28,244.87c0-11.32,11.72-20.48,26.18-20.48h141.8
			c14.45,0,26.17,9.16,26.17,20.48v72.55c-2.52-3.13-5.05-6.15-7.6-9.08v-0.04l-0.06-0.02c-72.92-83.45-155.8-83.53-155.8-83.53
			c59.53,10.38,87.49,47.31,100.37,84.18c5.03,19.92,2.39,47.98-39.52,67.38h-65.37c-14.46,0-26.18-9.17-26.18-20.49V244.87z"/>
	</g>
	<g>
		<path class="st0" d="M300.35,600.69C134.75,600.69,0,465.95,0,300.34C0,134.74,134.75,0,300.35,0S600.7,134.74,600.7,300.34
			C600.7,465.95,465.95,600.69,300.35,600.69z M300.35,60.13c-132.47,0-240.22,107.75-240.22,240.21
			c0,132.46,107.75,240.22,240.22,240.22S540.57,432.8,540.57,300.34C540.57,167.89,432.82,60.13,300.35,60.13z"/>
	</g>
</g>
</svg>
