<?xml version="1.0" encoding="utf-8"?>
<!-- Generator: Adobe Illustrator 26.5.0, SVG Export Plug-In . SVG Version: 6.00 Build 0)  -->
<svg version="1.1" id="Layer_1" xmlns="http://www.w3.org/2000/svg" xmlns:xlink="http://www.w3.org/1999/xlink" x="0px" y="0px"
	 viewBox="0 0 600 600" style="enable-background:new 0 0 600 600;" xml:space="preserve">
<style type="text/css">
	.st0{fill:#2F3F4E;}
</style>
<g>
	<path class="st0" d="M393.3,504.6c-7.9-2-15.5-4.5-22-9.5c-16.7-12.8-22.9-34.7-15.3-54.4c7.4-19,27.5-31.4,47.5-29.4
		c21.4,2.2,38.3,17.8,41.9,38.8c4.3,25.5-12.7,49.3-38.3,53.7c-0.6,0.1-1.2,0.5-1.8,0.7C401.3,504.6,397.3,504.6,393.3,504.6z"/>
	<path class="st0" d="M224,504.6c-4.9-1.6-10-2.7-14.6-4.9c-19.7-9.4-30.2-31.6-25.1-52.6c5.3-21.6,24.7-36.5,46.8-35.9
		c21.8,0.6,40.6,16.6,44.6,38.1c4.8,25.6-12.5,50.3-38.3,54.5c-0.8,0.1-1.5,0.5-2.2,0.7C231.4,504.6,227.7,504.6,224,504.6z"/>
	<path class="st0" d="M191.4,182.5c1.8,0,3.6,0,5.3,0c89.4,0,178.9,0,268.4,0c2.6,0,5.4-0.1,7.9,0.6c8,2.1,12,10.2,9.4,18.7
		c-3.3,10.7-6.8,21.3-10.2,31.9c-9,28-18,55.9-27,83.9c-3.4,10.5-7.6,13.6-18.6,13.6c-68.7,0-137.4,0-206.1,0c-1.6,0-3.1,0-5.1,0
		c1.9,12,3.7,23.5,5.7,35c0.1,0.8,1.4,1.7,2.3,2c1.1,0.4,2.4,0.1,3.6,0.1c67.4,0,134.7,0,202.1,0c8.9,0,14.1,3.2,16.3,10
		c2.8,8.5-3,17.5-11.9,18.5c-1.7,0.2-3.5,0.1-5.2,0.1c-71.9,0-143.8,0-215.6,0c-11.8,0-16.3-4-18.2-15.5
		c-7.9-48.7-15.9-97.4-23.8-146c-5.4-33.3-10.9-66.6-16.2-100c-0.4-2.4-1.2-3.6-3.8-4c-13.2-2.2-26.5-4.6-39.7-6.8
		c-8.4-1.4-13.8-7.1-13.7-14.5c0.1-8.8,7.9-15.4,16.7-14c18,3,35.9,6.2,53.8,9.4c7.5,1.3,11.7,5.9,13,13.7
		c3.2,20.1,6.5,40.2,9.8,60.2C190.7,180.3,191.1,181.3,191.4,182.5z"/>
</g>
</svg>
