<?xml version="1.0" encoding="utf-8"?>
<!-- Generator: Adobe Illustrator 24.1.2, SVG Export Plug-In . SVG Version: 6.00 Build 0)  -->
<svg version="1.1" id="Layer_1" xmlns="http://www.w3.org/2000/svg" xmlns:xlink="http://www.w3.org/1999/xlink" x="0px" y="0px"
	 viewBox="0 0 241.9 59" style="enable-background:new 0 0 241.9 59;" xml:space="preserve">
<style type="text/css">
	.st0{fill:#FFFFFF;}
</style>
<g>
	<path class="st0" d="M40.9,27.3c-2-1.3-4-2.4-6.3-3.2s-4.3-1.3-6.2-1.6c-0.4-0.1-1.2-0.2-2.5-0.5s-2.7-0.5-4-1
		c-1.4-0.5-2.6-0.9-3.8-1.4c-1.1-0.5-1.6-1.3-1.6-2s0.2-1.3,0.6-1.7c0.5-0.5,1-0.7,1.7-0.9s1.4-0.3,2.2-0.3c0.7,0,1.4,0,2,0
		c1.9,0,4,0.4,6.3,1.1c2.2,0.7,4.8,1.9,7.4,3.5c0.5,0.3,0.9,0.5,1.4,0.3c0.5-0.1,0.9-0.4,1.3-0.8l6.1-8.6c0.3-0.5,0.5-0.9,0.4-1.4
		s-0.3-1-0.7-1.4C42,5,38.7,3.1,35.2,1.8C31.7,0.6,27.7,0,23.4,0c-2.5,0-5,0.3-7.7,0.8s-5,1.5-7.2,2.9s-4,3.2-5.3,5.6
		C1.6,11.6,1,14.6,1,18.2c0,2.4,0.4,4.6,1.2,6.4c0.7,1.8,1.8,3.3,3,4.7c1.3,1.3,2.7,2.3,4.2,3.2c1.6,0.8,3.1,1.5,4.8,2.1
		s3.1,1,4.7,1.3c1.5,0.3,2.9,0.5,4,0.7c1.2,0.3,2.3,0.5,3.5,0.6s2.2,0.4,3,0.6c0.9,0.3,1.5,0.5,2.1,1c0.5,0.4,0.8,0.9,0.8,1.6
		c0,1.3-0.6,2.2-1.8,3c-1.2,0.6-3,1-5.2,1c-2.4,0-5-0.5-7.7-1.5c-2.8-1.1-5.6-2.4-8.4-4.3c-0.5-0.3-0.9-0.4-1.4-0.3
		s-0.9,0.4-1.3,0.8l-6,8.6c-0.3,0.5-0.4,0.9-0.4,1.4c0.1,0.5,0.3,1,0.7,1.3c1.4,1.2,3.1,2.3,4.8,3.4c1.7,1.1,3.6,2,5.7,2.8
		s4.2,1.3,6.6,1.8c2.3,0.4,4.9,0.6,7.6,0.6c3.3,0,6.4-0.4,9.1-1.1s5-1.8,7-3.2s3.5-3.3,4.6-5.6s1.6-5,1.6-8.1c0-3.3-0.6-6.1-2-8.3
		C44.5,30.5,42.8,28.7,40.9,27.3z"/>
	<path class="st0" d="M99.1,0.9H87.4c-0.5,0-1,0.2-1.3,0.5s-0.5,0.8-0.5,1.3v31.6c0,2.1-0.4,3.7-1,5s-1.4,2.3-2.4,3.2
		c-0.9,0.7-2,1.3-3.1,1.6s-2.1,0.5-3,0.5s-1.9-0.2-3-0.5s-2.2-0.8-3.1-1.6c-1-0.7-1.8-1.8-2.4-3.2c-0.6-1.3-1-3-1-5V2.7
		c0-0.5-0.2-1-0.5-1.4c-0.4-0.3-0.8-0.4-1.3-0.4H53.1c-0.5,0-1,0.2-1.3,0.5c-0.4,0.4-0.5,0.8-0.5,1.3v31.6c0,3.7,0.6,7,1.8,10.1
		c1.2,3.1,2.9,5.6,5,7.7c2.2,2.2,4.8,3.8,7.9,4.9c3.1,1.2,6.5,1.8,10.2,1.8c3.8,0,7.1-0.6,10.2-1.8s5.7-2.8,7.9-5
		c2.2-2.2,3.9-4.7,5-7.7s1.7-6.3,1.7-10V2.7c0-0.5-0.2-1-0.5-1.4C100.1,1.1,99.7,0.9,99.1,0.9z"/>
	<path class="st0" d="M149.9,32.8c-0.7-1-1.4-1.8-2.3-2.5c-0.8-0.7-1.7-1.3-2.5-1.7c-1.1-0.5-1.1-1.1-0.2-1.8c1.4-1,2.6-2.3,3.8-4
		s1.8-3.8,1.8-6.1c0-2.9-0.5-5.4-1.6-7.4s-2.4-3.6-4.2-4.9c-1.7-1.3-3.8-2.2-6-2.7s-4.7-0.8-7.2-0.8h-23.6c-0.5,0-1,0.2-1.3,0.5
		s-0.5,0.8-0.5,1.4v53.5c0,0.5,0.2,1,0.5,1.3s0.8,0.5,1.3,0.5h24.8c2.6,0,5.1-0.3,7.5-0.8s4.5-1.4,6.3-2.8s3.2-3.1,4.3-5.3
		s1.6-5,1.6-8.4c0-1.7-0.2-3.2-0.6-4.4C151.1,34.8,150.6,33.7,149.9,32.8z M121.4,17c0-0.5,0.2-1,0.5-1.4c0.4-0.4,0.8-0.5,1.4-0.5
		h7.4c0.7,0,1.4,0.4,2.2,1c0.7,0.7,1.2,1.4,1.2,2.4s-0.3,1.9-0.9,2.7c-0.6,0.8-1.4,1.2-2.5,1.2h-7.3c-0.5,0-1-0.2-1.4-0.5
		s-0.5-0.8-0.5-1.4L121.4,17L121.4,17z M134.7,42.4c-0.8,0.8-1.7,1.2-2.6,1.2h-8.7c-0.5,0-1-0.2-1.4-0.5s-0.5-0.8-0.5-1.3v-4.4
		c0-0.5,0.2-1,0.5-1.3c0.4-0.4,0.8-0.5,1.4-0.5h8.2c1.4,0,2.4,0.5,3.2,1.4c0.8,1,1.2,1.9,1.2,2.9C135.9,40.7,135.6,41.6,134.7,42.4z
		"/>
	<path class="st0" d="M232.4,14.8c0.3-0.5,0.6-0.9,0.8-1.5c0.3-0.6,0.4-1.2,0.4-1.7v-9c0-0.5-0.2-1-0.5-1.4
		c-0.4-0.4-0.8-0.5-1.4-0.5h-44.2c-0.5,0-1,0.2-1.4,0.5s-0.5,0.8-0.5,1.4v0.1v7.7v2.8v0.2c0,5.2,0,15.6,0,16c0-0.9,7.5-14,7.5-14
		v8.5l5.9-8.7h11.2c0.5,0,0.9,0.3,1,0.7s0,0.9-0.3,1.4L187,44.1c-0.3,0.5-0.6,0.9-0.9,1.5s-0.4,1.2-0.4,1.7V56c0,0.5,0.2,1,0.5,1.3
		s0.8,0.5,1.4,0.5h44.2c0.5,0,1-0.2,1.4-0.5s0.5-0.8,0.5-1.3V45.5c0-0.5-0.2-1-0.5-1.3c-0.4-0.4-0.8-0.5-1.4-0.5h-22.6
		c-0.5,0-0.8-0.2-0.9-0.6s0-0.9,0.3-1.3L232.4,14.8z"/>
	<g>
		<path class="st0" d="M178.9,36.7h-20.7c-0.5,0-1-0.2-1.4-0.5c-0.4-0.4-0.5-0.9-0.5-1.4V23.5c0-0.6,0.2-1.1,0.5-1.4
			c0.4-0.4,0.9-0.5,1.4-0.5h20.7c0.5,0,1,0.2,1.4,0.5c0.4,0.4,0.5,0.8,0.5,1.4v11.2c0,0.5-0.2,1-0.5,1.4
			C179.9,36.5,179.5,36.7,178.9,36.7z"/>
	</g>
</g>
<g>
	<path class="st0" d="M238.8,51.9c0.5,0,1,0.1,1.5,0.4c0.4,0.3,0.9,0.6,1.2,1.1s0.4,1,0.4,1.5s-0.1,1-0.4,1.5
		c-0.3,0.4-0.6,0.8-1.1,1.1c-0.4,0.3-1,0.4-1.5,0.4s-1-0.1-1.5-0.4c-0.4-0.3-0.8-0.6-1.1-1.1c-0.3-0.4-0.4-1-0.4-1.5s0.2-1,0.4-1.5
		c0.3-0.5,0.6-0.9,1.2-1.1C237.8,52,238.3,51.9,238.8,51.9z M238.8,52.4c-0.4,0-0.8,0.1-1.3,0.4c-0.4,0.2-0.7,0.5-0.9,0.9
		s-0.4,0.8-0.4,1.3c0,0.4,0.1,0.8,0.4,1.3c0.2,0.4,0.5,0.7,0.9,0.9s0.8,0.4,1.3,0.4s0.8-0.1,1.3-0.4c0.4-0.2,0.7-0.5,0.9-0.9
		s0.4-0.8,0.4-1.3c0-0.4-0.1-0.9-0.4-1.3c-0.3-0.5-0.5-0.7-0.9-0.9C239.6,52.5,239.2,52.4,238.8,52.4z M237.4,56.6v-3.2h1.1
		c0.4,0,0.6,0,0.8,0.1s0.3,0.2,0.4,0.3c0.1,0.2,0.2,0.3,0.2,0.4c0,0.3-0.1,0.4-0.3,0.6c-0.2,0.2-0.4,0.3-0.7,0.3
		c0.1,0.1,0.2,0.1,0.3,0.2c0.1,0.1,0.3,0.4,0.4,0.6l0.4,0.6h-0.5l-0.3-0.5c-0.3-0.4-0.4-0.6-0.5-0.7c-0.1-0.1-0.3-0.1-0.4-0.1H238
		v1.3L237.4,56.6L237.4,56.6z M238,54.7h0.6c0.3,0,0.5-0.1,0.6-0.2c0.1-0.1,0.2-0.2,0.2-0.4c0-0.1,0-0.2-0.1-0.3s-0.1-0.1-0.2-0.2
		c-0.1,0-0.3-0.1-0.5-0.1H238V54.7L238,54.7z"/>
</g>
</svg>
