<?xml version="1.0" encoding="utf-8"?>
<!-- Generator: Adobe Illustrator 23.1.1, SVG Export Plug-In . SVG Version: 6.00 Build 0)  -->
<svg version="1.1" id="Layer_1" xmlns="http://www.w3.org/2000/svg" xmlns:xlink="http://www.w3.org/1999/xlink" x="0px" y="0px"
	 viewBox="0 0 100 100" style="enable-background:new 0 0 100 100;" xml:space="preserve">
<style type="text/css">
	.st0{fill:#FFFFFF;}
</style>
<g>
	<g transform="translate(50 50) scale(0.69 0.69) rotate(0) translate(-50 -50)">
		<title>Search,</title>
		<g>
			<path class="st0" d="M34.4,6.2C18.8,6.2,6.2,18.8,6.2,34.4s12.6,28.1,28.1,28.1s28.1-12.6,28.1-28.1S49.9,6.2,34.4,6.2z
				 M34.4,56.2c-12.1,0-21.9-9.8-21.9-21.9s9.8-21.9,21.9-21.9s21.9,9.8,21.9,21.9S46.5,56.2,34.4,56.2z M92.8,92.8
				c-1.2,1.2-3.2,1.2-4.4,0c0,0,0,0,0,0L57.2,61.6c-1.2-1.2-1.2-3.2,0-4.4c1.2-1.2,3.2-1.2,4.4,0l31.3,31.3
				C94.1,89.6,94.1,91.6,92.8,92.8C92.9,92.8,92.8,92.8,92.8,92.8z"/>
		</g>
	</g>
</g>
</svg>
