<?xml version="1.0" encoding="utf-8"?>
<!-- Generator: Adobe Illustrator 26.5.0, SVG Export Plug-In . SVG Version: 6.00 Build 0)  -->
<svg version="1.1" id="Layer_1" xmlns="http://www.w3.org/2000/svg" xmlns:xlink="http://www.w3.org/1999/xlink" x="0px" y="0px"
	 viewBox="0 0 600 600" style="enable-background:new 0 0 600 600;" xml:space="preserve">
<style type="text/css">
	.st0{fill:#2F3F4E;}
</style>
<g>
	<path class="st0" d="M121.3,504.6c-9.3-3.4-11.9-10.3-11.6-19.8c0.8-22.8,4.1-45,12.9-66.1c14.2-34.1,38.9-57.8,72.3-73
		c24-10.9,49.5-16,75.6-18.2c24.5-2.1,48.9-1.7,73.3,1.5c31.3,4.1,61.1,12.9,87.3,31.4c29.9,21.1,47.8,50.2,55,85.8
		c2.6,12.7,3,25.8,4.5,38.8c1.1,9.5-2.2,16.4-11.5,19.8C359.8,504.6,240.6,504.6,121.3,504.6z"/>
	<path class="st0" d="M201.1,197.2c0.9-34.2,13-62.8,41.3-83.2c21.4-15.4,45.6-20.5,71.5-17.2c28.5,3.7,51.4,17.4,67.7,41.2
		c15,21.9,19.8,46.5,16.6,72.6c-3.2,26.2-14.2,48.7-33.3,67.2c-33.2,32.4-86.4,35-122.5,5.9C214.9,261.5,202.3,232,201.1,197.2z"/>
</g>
</svg>
