<?xml version="1.0" encoding="utf-8"?>
<!-- Generator: Adobe Illustrator 24.3.0, SVG Export Plug-In . SVG Version: 6.00 Build 0)  -->
<svg version="1.1" id="Vimeo" xmlns="http://www.w3.org/2000/svg" xmlns:xlink="http://www.w3.org/1999/xlink" x="0px" y="0px"
	 viewBox="0 0 20 20" style="enable-background:new 0 0 20 20;" xml:space="preserve">
<style type="text/css">
	.st0{fill:#FFFFFF;}
</style>
<path class="st0" d="M18.9,5.8c-1,5.8-6.6,10.7-8.3,11.8c-1.7,1.1-3.2-0.4-3.8-1.6c-0.6-1.3-2.6-8.7-3.1-9.3c-0.5-0.6-2,0.6-2,0.6
	L1,6.4c0,0,3.1-3.7,5.4-4.2C8.9,1.7,8.9,6,9.5,8.4c0.6,2.3,1,3.7,1.5,3.7s1.5-1.3,2.5-3.3c1.1-2,0-3.8-2.1-2.5
	C12.1,1.3,19.9,0.1,18.9,5.8z"/>
</svg>
