<?xml version="1.0" standalone="no"?>
<!DOCTYPE svg PUBLIC "-//W3C//DTD SVG 20010904//EN"
 "http://www.w3.org/TR/2001/REC-SVG-20010904/DTD/svg10.dtd">
<svg version="1.0" xmlns="http://www.w3.org/2000/svg"
 width="700.000000pt" height="700.000000pt" viewBox="0 0 700.000000 700.000000"
 preserveAspectRatio="xMidYMid meet">
<metadata>
Created by potrace 1.14, written by Peter Selinger 2001-2017
</metadata>
<g transform="translate(0.000000,700.000000) scale(0.100000,-0.100000)"
fill="#000000" stroke="none">
<path d="M3378 6635 c-2 -1 -50 -5 -108 -8 -454 -26 -971 -186 -1359 -420 -52
-31 -95 -57 -97 -57 -2 0 -50 -32 -106 -72 -699 -486 -1179 -1239 -1313 -2058
-15 -96 -19 -121 -34 -265 -9 -82 -7 -510 2 -555 3 -14 8 -52 11 -85 25 -277
136 -659 279 -965 108 -231 309 -539 467 -714 293 -327 581 -553 942 -739 265
-138 644 -264 903 -301 22 -3 51 -8 65 -11 98 -19 265 -30 460 -30 259 0 407
14 635 60 1095 221 2010 1033 2356 2090 34 102 84 292 93 347 3 21 10 57 16
81 5 24 12 70 16 103 3 32 8 62 10 65 15 25 23 453 11 619 -48 674 -314 1311
-766 1832 -446 515 -1053 873 -1721 1016 -122 27 -144 31 -208 38 -29 3 -62 7
-72 9 -59 11 -472 28 -482 20z m337 -619 c490 -45 935 -220 1320 -520 383
-299 666 -688 830 -1141 34 -95 88 -285 99 -350 3 -16 8 -43 11 -60 12 -66 15
-83 21 -145 3 -36 8 -78 10 -95 5 -43 4 -342 0 -390 -3 -22 -7 -67 -10 -100
-18 -177 -82 -435 -153 -614 -106 -269 -227 -476 -409 -696 -172 -210 -375
-388 -607 -534 -155 -98 -411 -219 -547 -259 -100 -30 -178 -51 -200 -56 -14
-2 -56 -11 -95 -19 -167 -36 -242 -42 -510 -41 -273 0 -387 14 -620 74 -757
195 -1413 774 -1700 1500 -65 165 -124 371 -140 490 -3 25 -8 52 -10 60 -28
104 -38 438 -19 619 24 225 54 372 118 561 51 155 55 163 133 320 95 191 224
388 348 530 83 96 256 261 345 330 25 19 47 37 50 41 5 6 21 17 149 101 290
190 658 330 981 374 19 3 46 7 60 9 14 3 66 8 115 11 50 4 91 7 92 8 6 5 273
-2 338 -8z"/>
<path d="M2146 4894 c-183 -40 -333 -143 -403 -278 -42 -82 -43 -89 -43 -1097
0 -583 4 -986 10 -1016 28 -148 148 -278 320 -346 128 -51 114 -50 990 -52
l825 -2 74 76 c226 234 349 503 355 781 3 129 -16 251 -57 363 -13 37 -23 67
-22 67 5 0 70 -114 112 -195 75 -145 158 -361 189 -495 34 -142 38 -173 38
-320 1 -127 -3 -172 -19 -246 l-7 -31 144 3 c87 1 170 9 213 19 146 33 298
135 360 241 62 106 58 35 60 1119 1 545 -2 1008 -7 1030 -27 124 -136 254
-268 318 -158 77 -43 72 -1495 74 -1120 1 -1310 -1 -1369 -13z m2169 -605 c63
-16 97 -35 132 -71 57 -59 57 -59 58 -497 l1 -404 -39 44 c-139 157 -287 298
-419 401 -200 157 -388 267 -618 361 -77 32 -263 92 -314 101 -12 2 -39 9 -61
14 -47 12 -94 20 -167 27 l-53 5 55 -15 c30 -9 65 -18 77 -20 49 -11 172 -59
245 -96 285 -143 496 -383 611 -694 109 -297 -8 -556 -328 -723 l-60 -32 -376
0 c-419 0 -444 3 -516 65 -76 65 -74 44 -74 710 -1 645 0 658 57 732 32 42 62
62 128 84 47 17 113 18 836 18 520 1 799 -3 825 -10z"/>
</g>
</svg>
